<?xml version="1.0" standalone="no"?>
<!DOCTYPE svg PUBLIC "-//W3C//DTD SVG 20010904//EN"
 "http://www.w3.org/TR/2001/REC-SVG-20010904/DTD/svg10.dtd">
<svg version="1.0" xmlns="http://www.w3.org/2000/svg"
 width="2048.000000pt" height="2048.000000pt" viewBox="0 0 2048.000000 2048.000000"
 preserveAspectRatio="xMidYMid meet">
<metadata>
Created by potrace 1.14, written by Peter Selinger 2001-2017
</metadata>
<g transform="translate(0.000000,2048.000000) scale(0.100000,-0.100000)"
fill="#000000" stroke="none">
<path d="M15206 12687 c-33 -67 -79 -155 -103 -195 -24 -40 -43 -77 -43 -82 0
-6 -4 -10 -10 -10 -5 0 -10 -5 -10 -10 0 -6 -8 -23 -19 -38 -10 -15 -40 -61
-67 -102 -59 -92 -176 -254 -186 -258 -5 -2 -8 -10 -8 -17 0 -8 -6 -18 -13
-22 -6 -4 -26 -28 -42 -53 -16 -25 -32 -47 -35 -50 -8 -8 -242 -359 -270 -405
-65 -108 -157 -338 -176 -438 -24 -129 -26 -307 -4 -412 7 -33 14 -67 15 -75
2 -8 4 -15 5 -15 1 0 3 -7 5 -15 11 -44 60 -163 96 -229 144 -268 391 -462
671 -526 40 -9 82 -19 93 -21 65 -15 293 -5 364 16 17 5 31 7 31 5 0 -2 24 4
54 15 30 10 57 16 60 13 3 -4 6 -1 6 5 0 7 7 12 16 12 9 0 52 19 96 42 110 57
233 149 292 217 12 14 28 32 37 41 50 53 151 220 190 315 58 142 86 366 66
523 -13 98 -18 123 -43 205 -24 83 -34 106 -107 252 -32 64 -185 305 -207 325
-3 3 -26 34 -51 70 -88 127 -204 285 -211 288 -5 2 -8 8 -8 13 0 6 -5 15 -10
22 -38 45 -50 61 -50 67 0 3 -8 15 -18 26 -28 31 -112 159 -112 171 0 6 -4 13
-8 15 -5 2 -27 37 -49 78 -110 204 -152 289 -158 323 -4 20 -10 37 -14 36 -3
0 -33 -55 -65 -122z m500 -960 c196 -230 368 -535 410 -727 4 -19 9 -42 11
-50 8 -32 9 -216 2 -245 -4 -16 -10 -46 -13 -65 -3 -19 -14 -59 -25 -87 -11
-29 -17 -53 -15 -53 2 0 -2 -10 -10 -22 -8 -13 -16 -27 -16 -33 -2 -18 -34
-80 -44 -87 -6 -4 -7 -8 -2 -8 4 0 -3 -15 -18 -34 -14 -19 -26 -38 -26 -41 0
-6 -10 -20 -70 -100 -33 -44 -141 -145 -155 -145 -20 0 -14 31 29 156 19 54
40 119 47 144 7 25 14 50 15 55 3 9 18 77 29 135 21 103 23 293 4 405 -15 94
-15 92 -33 171 -44 186 -94 364 -157 564 -9 30 -20 70 -24 88 l-7 34 24 -16
c13 -9 33 -26 44 -39z"/>
<path d="M2450 12316 c-33 -71 -70 -149 -81 -174 -12 -26 -37 -81 -56 -122
-20 -41 -48 -102 -63 -135 -15 -33 -45 -98 -67 -145 -71 -151 -131 -277 -213
-455 -78 -167 -93 -200 -95 -205 -1 -3 -21 -45 -44 -95 -24 -49 -83 -175 -131
-280 -48 -104 -103 -224 -123 -265 -88 -189 -121 -260 -154 -330 -19 -41 -50
-106 -67 -145 -18 -38 -51 -108 -73 -155 -22 -47 -39 -87 -38 -90 2 -3 95 -5
207 -5 l203 0 32 65 c17 36 50 106 72 155 23 50 52 113 65 140 58 123 89 193
103 226 l14 36 543 0 c299 0 548 -2 554 -6 6 -3 38 -71 72 -151 34 -80 70
-163 79 -185 10 -22 40 -89 66 -150 26 -60 51 -114 57 -120 8 -9 404 -16 421
-7 4 2 4 9 -1 15 -5 7 -24 46 -42 87 -18 41 -46 103 -62 138 -39 84 -51 116
-50 124 1 3 -5 12 -13 18 -8 7 -15 17 -15 22 0 10 -25 68 -97 228 -14 30 -42
93 -63 140 -21 47 -49 110 -63 140 -68 149 -77 170 -77 179 0 6 -4 11 -10 11
-5 0 -9 3 -8 8 2 11 -40 108 -84 195 -11 20 -17 37 -13 37 3 0 -1 10 -9 23 -8
12 -51 104 -95 204 -44 101 -99 221 -121 269 -22 47 -40 88 -40 91 0 2 -14 34
-31 71 -61 130 -69 148 -69 159 0 6 -7 16 -15 23 -8 6 -14 15 -13 18 2 8 6 -1
-127 297 -54 121 -99 222 -101 224 -2 2 -31 -53 -64 -123z m93 -831 c19 -44
81 -186 137 -315 56 -129 112 -257 125 -285 37 -81 64 -149 67 -165 3 -13 -45
-15 -379 -16 -211 0 -383 1 -383 3 0 2 14 34 31 71 45 98 63 136 64 142 1 3
20 45 43 94 23 49 42 90 42 92 0 1 22 49 48 106 27 57 75 160 107 231 32 70
59 126 61 125 1 -2 18 -39 37 -83z"/>
<path d="M9287 12334 c-1 -1 -40 -5 -87 -8 -66 -5 -185 -28 -270 -51 -66 -19
-230 -98 -310 -151 -163 -107 -229 -170 -390 -371 -29 -36 -114 -198 -140
-267 -51 -131 -82 -283 -84 -403 -1 -24 -5 -43 -9 -43 -5 0 -5 -4 -2 -10 3 -5
8 -53 10 -107 5 -119 11 -162 44 -298 14 -56 56 -165 80 -209 11 -20 18 -36
14 -36 -3 0 1 -8 9 -17 8 -10 27 -39 41 -65 81 -140 252 -318 412 -425 284
-191 684 -256 1019 -167 50 13 100 26 111 29 62 15 249 120 328 184 41 33 165
158 199 201 69 87 175 283 187 345 1 6 6 27 12 48 5 21 12 50 14 65 2 15 6 36
8 47 5 23 16 101 22 160 6 61 7 256 1 262 -3 3 -240 5 -528 5 l-523 0 0 -182
0 -183 317 1 317 1 -5 -42 c-12 -83 -70 -226 -117 -284 -118 -144 -237 -233
-384 -286 -94 -34 -121 -39 -243 -43 -207 -6 -400 61 -584 205 -47 37 -206
203 -206 215 0 2 -18 33 -40 69 -42 70 -83 176 -95 248 -5 24 -10 55 -12 69
-11 61 -9 272 3 336 47 248 156 430 351 587 37 30 97 71 133 90 80 44 230 95
288 98 24 2 45 5 47 8 4 7 192 5 260 -3 108 -12 255 -71 370 -149 61 -42 191
-165 238 -227 l26 -35 32 30 c129 121 239 230 239 239 0 17 -201 209 -280 267
-242 178 -420 236 -768 252 -29 2 -54 2 -55 1z"/>
<path d="M12045 12323 c-103 -12 -352 -81 -384 -106 -7 -6 -19 -12 -25 -13 -7
-1 -31 -14 -54 -28 -23 -14 -44 -26 -48 -26 -21 0 -184 -129 -265 -210 -150
-149 -251 -298 -317 -470 -34 -86 -64 -208 -66 -262 -1 -16 -3 -28 -6 -28 -10
0 -9 -312 1 -337 5 -14 5 -23 -1 -23 -6 0 -6 -9 -1 -22 7 -19 23 -93 35 -163
1 -5 4 -14 7 -20 4 -5 12 -34 19 -62 6 -29 16 -53 22 -53 5 0 7 -4 4 -8 -7
-11 66 -151 122 -236 48 -72 218 -251 285 -300 282 -206 514 -285 834 -284
146 0 178 4 303 30 30 6 60 13 65 14 37 7 133 43 204 76 229 104 464 315 596
533 29 47 68 124 70 135 0 3 6 14 12 25 15 28 62 180 69 224 3 20 7 38 9 42 8
13 18 163 18 264 0 108 -13 211 -37 310 -93 372 -365 701 -731 882 -92 46
-249 96 -344 109 -44 7 -355 12 -396 7z m321 -367 c70 -8 227 -60 304 -103
168 -92 354 -291 408 -438 6 -16 20 -54 31 -83 52 -138 68 -368 37 -527 -9
-43 -38 -150 -44 -160 -4 -5 -7 -12 -7 -15 -3 -28 -85 -172 -132 -231 -18 -24
-150 -155 -175 -174 -113 -89 -259 -152 -414 -179 -75 -13 -269 -15 -324 -2
-14 3 -36 7 -50 10 -72 12 -289 107 -310 135 -3 3 -17 14 -33 24 -43 28 -161
142 -205 200 -73 95 -146 253 -167 362 -28 144 -26 345 4 475 23 104 111 280
176 355 100 116 243 231 340 274 164 73 355 99 561 77z"/>
<path d="M4077 12282 c-10 -2 -17 -13 -17 -25 -1 -34 -1 -2392 0 -2472 l0 -70
570 0 570 0 1 30 c1 47 1 277 0 308 l-1 27 -374 0 c-290 0 -375 3 -378 13 -2
6 -3 501 -3 1100 1 598 -1 1087 -4 1088 -19 3 -351 3 -364 1z"/>
<path d="M5574 12281 c-2 -2 -4 -581 -4 -1285 l0 -1281 570 0 570 0 1 122 c0
68 0 143 0 168 0 25 0 52 0 60 -1 13 -50 15 -376 15 -350 0 -375 1 -376 18 0
9 -1 502 -1 1095 -1 724 -5 1080 -11 1084 -12 7 -366 11 -373 4z"/>
<path d="M17090 11880 c-1 -769 -1 -1776 0 -1970 l0 -195 358 1 c326 1 409 4
542 20 291 35 521 151 740 374 124 126 212 266 273 435 22 61 31 100 52 205
26 130 24 390 -5 525 -5 28 -11 59 -13 70 -17 105 -118 322 -199 430 -57 75
-167 188 -226 232 -20 15 -39 30 -42 33 -14 14 -70 50 -79 50 -5 0 -11 3 -13
8 -3 7 -95 54 -168 85 -19 8 -64 22 -100 32 -36 9 -72 20 -80 23 -8 2 -26 6
-40 7 -14 2 -52 8 -85 14 -94 17 -242 23 -593 25 l-322 1 0 -405z m810 20
c213 -35 383 -108 504 -219 104 -94 207 -267 245 -413 23 -84 41 -269 32 -308
-1 -3 -4 -34 -6 -70 -5 -62 -11 -112 -15 -117 -3 -3 -3 -4 -14 -53 -5 -19 -22
-66 -38 -105 -117 -269 -376 -470 -658 -511 -19 -2 -46 -7 -60 -10 -14 -3
-113 -8 -221 -11 -176 -5 -196 -4 -196 11 0 9 5 16 10 16 6 0 6 5 0 13 -7 9
-11 1750 -4 1788 2 11 344 2 421 -11z"/>
<path d="M17917 9140 c-84 -21 -147 -72 -195 -158 -11 -21 -39 -127 -41 -162
-5 -70 -8 -247 -4 -253 3 -5 6 -32 8 -60 8 -135 76 -241 185 -290 65 -29 277
-28 420 1 l35 8 1 222 c1 122 -1 222 -5 223 -22 3 -219 4 -233 1 -11 -3 -16
-13 -15 -35 l2 -32 74 -2 c40 -1 79 -4 86 -7 9 -3 12 -42 13 -138 1 -149 -2
-174 -20 -176 -7 0 -40 -4 -73 -7 -96 -11 -204 -8 -220 5 -8 7 -15 10 -15 6 0
-11 -54 21 -82 48 -50 50 -81 179 -79 324 1 48 1 61 0 75 -1 6 1 30 5 52 3 22
9 58 12 80 15 97 70 167 154 195 50 17 179 20 255 6 16 -3 55 -8 85 -12 l56
-6 1 36 c0 20 -4 36 -11 37 -6 0 -20 2 -31 4 -97 19 -316 28 -368 15z"/>
<path d="M12284 9125 c-2 -5 -2 -215 -1 -465 l2 -455 38 -1 c43 -2 38 -23 39
193 l0 132 156 0 c179 1 199 4 256 33 47 24 79 55 102 100 24 47 28 74 29 188
0 91 -3 111 -24 150 -31 60 -58 85 -117 110 -44 20 -69 22 -263 23 -136 2
-215 -1 -217 -8z m384 -69 c106 -11 156 -84 155 -226 0 -96 -28 -160 -87 -199
-37 -24 -45 -25 -202 -27 -145 -2 -164 -1 -168 14 -2 9 -5 112 -5 229 l0 212
77 3 c90 3 156 2 230 -6z"/>
<path d="M13090 9133 c-14 -3 -16 -57 -15 -466 l0 -462 252 0 251 -1 4 28 c3
15 2 32 -1 37 -4 6 -91 9 -208 9 -111 0 -206 3 -210 5 -5 3 -9 191 -8 417 0
227 -3 416 -6 421 -6 11 -37 17 -59 12z"/>
<path d="M13701 9132 c-15 -5 -15 -691 0 -747 22 -86 61 -133 137 -168 37 -16
68 -21 147 -21 126 -1 161 5 221 38 46 25 94 79 102 115 2 9 6 30 9 46 3 17 6
190 7 385 1 332 0 355 -16 354 -10 -1 -28 -2 -41 -3 l-22 -1 0 -347 c1 -377
-2 -403 -53 -456 -41 -44 -100 -61 -197 -59 -74 1 -104 9 -145 36 -73 48 -74
58 -78 446 -1 190 -3 354 -5 364 -2 18 -37 28 -66 18z"/>
<path d="M14561 9130 c-4 -3 -7 -212 -7 -465 l1 -460 35 -1 c19 -1 37 2 40 6
3 5 5 195 5 424 -1 229 3 416 7 416 5 0 13 -12 19 -27 7 -16 15 -37 20 -48 11
-28 32 -99 31 -105 0 -3 3 -9 8 -15 6 -9 33 -81 35 -95 0 -3 3 -9 6 -15 11
-17 53 -150 51 -157 -1 -5 2 -8 8 -8 6 0 10 -6 10 -14 0 -21 110 -320 120
-326 5 -3 26 -5 47 -5 35 1 40 4 60 47 13 26 25 55 27 65 1 10 11 36 20 57 10
22 19 47 21 55 2 9 15 48 30 86 15 39 28 77 30 85 2 8 18 51 34 95 17 44 31
83 31 86 0 4 8 24 17 45 9 22 18 45 19 52 1 8 6 21 10 30 4 9 8 19 9 22 1 3 7
18 13 33 7 16 12 35 12 43 0 9 6 14 12 12 10 -4 13 -100 13 -424 l0 -419 40 0
40 0 0 464 0 465 -65 1 c-36 0 -72 -3 -81 -7 -9 -4 -22 -29 -29 -55 -7 -26
-16 -52 -21 -58 -4 -5 -11 -26 -17 -45 -13 -43 -169 -488 -181 -515 -5 -11
-17 -44 -27 -72 -18 -54 -29 -66 -31 -35 0 9 -21 73 -47 142 -26 69 -48 132
-50 140 -2 8 -8 29 -15 45 -14 33 -46 123 -91 255 -16 47 -40 112 -53 145
l-23 59 -68 1 c-37 0 -71 -2 -75 -5z"/>
<path d="M15679 9129 c-5 -3 -8 -195 -7 -465 l3 -459 195 -1 c229 0 279 6 338
43 62 39 92 96 96 186 6 118 -26 189 -106 231 l-36 19 32 21 c45 30 79 105 80
175 0 87 -13 140 -42 173 -34 38 -106 75 -152 77 -90 5 -393 5 -401 0z m370
-74 c93 -10 141 -64 141 -158 0 -71 -11 -105 -42 -136 -41 -40 -80 -47 -248
-47 l-145 1 -3 172 -2 172 62 3 c78 4 166 1 237 -7z m-241 -419 c6 -4 12 -4
12 1 0 10 91 10 108 -1 7 -4 12 -3 12 1 0 9 56 8 130 -2 55 -7 114 -45 135
-85 24 -46 21 -139 -5 -190 -34 -67 -79 -82 -253 -82 -78 0 -154 0 -169 1
l-28 1 0 178 c0 98 2 181 5 184 7 7 38 4 53 -6z"/>
<path d="M16499 9125 c0 -5 -2 -214 -2 -463 -2 -492 -6 -463 53 -459 l25 2 1
463 c1 329 -2 462 -10 463 -6 0 -23 2 -38 3 -16 1 -28 -3 -29 -9z"/>
<path d="M16826 9130 c-10 -4 -13 -97 -12 -465 l1 -460 32 -1 c18 0 36 2 40 5
5 3 8 195 8 425 0 331 3 420 13 424 8 2 29 -31 56 -90 64 -136 115 -245 143
-308 14 -30 38 -83 54 -117 16 -34 29 -67 29 -73 0 -5 5 -10 10 -10 6 0 10 -4
10 -10 0 -5 12 -35 27 -67 14 -32 39 -85 53 -118 l27 -60 80 -1 80 -1 -1 106
c-1 58 2 116 6 129 4 12 4 22 0 22 -6 0 -8 193 -3 315 1 17 1 71 0 120 -1 50
-1 104 0 120 2 83 -1 115 -12 116 -7 1 -24 2 -39 3 -17 2 -28 -3 -30 -13 -2
-9 -3 -202 -3 -428 1 -339 -1 -413 -12 -413 -11 0 -84 135 -88 160 0 3 -17 39
-36 80 -34 71 -45 94 -107 230 -31 68 -92 201 -138 298 -19 40 -34 76 -34 80
0 8 -134 10 -154 2z"/>
</g>
</svg>
